<svg  xmlns="http://www.w3.org/2000/svg">
    <defs>
        <symbol viewBox="0 0 24 24" fill="none" id="card">
            <path d="M8.10011 10.7778V4.66667C8.10011 3.69421 8.51099 2.76158 9.24237 2.07394C9.97375 1.38631 10.9657 1 12 1C13.0344 1 14.0263 1.38631 14.7577 2.07394C15.4891 2.76158 15.9 3.69421 15.9 4.66667V10.7778M19.6959 23H4.30414C4.12431 23.0005 3.94632 22.966 3.78141 22.8985C3.61651 22.8311 3.46828 22.7322 3.3461 22.6082C3.22393 22.4841 3.13045 22.3376 3.0716 22.1778C3.01274 22.018 2.98978 21.8485 3.00417 21.68L4.10915 8.23555C4.13534 7.92864 4.28379 7.64232 4.5248 7.43385C4.76581 7.22538 5.08163 7.11012 5.40912 7.11111H18.5909C18.9184 7.11012 19.2342 7.22538 19.4752 7.43385C19.7162 7.64232 19.8647 7.92864 19.8909 8.23555L20.9958 21.68C21.0102 21.8485 20.9873 22.018 20.9284 22.1778C20.8695 22.3376 20.7761 22.4841 20.6539 22.6082C20.5317 22.7322 20.3835 22.8311 20.2186 22.8985C20.0537 22.966 19.8757 23.0005 19.6959 23Z" stroke="#59313b" fill="currentColor" stroke-linecap="round" stroke-linejoin="round"/>
        </symbol>

        <symbol  viewBox="-74 0 100 100" id="tel">
        <path d="M21.2,71.7L9.1,59.5c-2-2-4.7-3.2-7.2-3.2c-2.7,0-5.1,1.1-7.2,3.2l-7,7c-0.3-0.2-0.7-0.4-1-0.5c0,0-0.1,0-0.1-0.1l-0.1-0.1
            c-0.9-0.6-1.9-1.2-3.1-1.7c-6.1-3.8-11.8-9.1-17.6-16.2c-2.7-3.4-4.6-6.4-6.1-9.7l0,0c1.6-1.3,2.8-2.6,3.7-3.6l3.1-3.1
            c2.4-2.2,3.6-4.7,3.6-7.3c0-2.7-1.2-5.2-3.5-7.6l-9.5-9.5c-0.9-0.9-1.8-1.8-2.8-2.7c-2-1.9-4.5-3-7.1-3c-2.9,0-5.3,1-7.5,3.2
            l-7.3,7.3c-2.9,2.7-4.6,6.1-5,10.3l0,0.1c-0.2,5.2,0.6,10,2.8,16c3.5,9.4,8.8,18.2,16.7,27.9C-42.8,77.8-31.2,86.8-18.3,93l0.3,0.1
            c3.8,1.7,11,4.9,19,5.4l1.1,0c5.3,0,9.3-1.7,12.6-5.3c1.2-1.4,2.5-2.7,3.6-3.9c0.9-0.7,1.5-1.4,2.1-2.1l0.8-0.8l0.2-0.2
            C25.6,81.6,25.6,76,21.2,71.7z M17.7,82.8l-1,1L16.6,84c-0.5,0.6-0.9,1.1-1.4,1.5l-0.3,0.3c-1.2,1.2-2.6,2.6-4,4.2
            c-2.3,2.5-4.9,3.6-8.8,3.6H1.3c-7-0.5-13.4-3.3-17.2-5l-0.2-0.1C-28.4,82.6-39.5,74-49.2,63c-7.6-9.2-12.6-17.6-15.9-26.4
            c-2-5.5-2.7-9.5-2.5-14c0.3-2.9,1.4-5.2,3.4-7l7.4-7.4c1.2-1.2,2.4-1.7,3.9-1.7c1.3,0,2.5,0.6,3.6,1.6l0.1,0.1
            c0.9,0.8,1.8,1.7,2.7,2.6l9.5,9.5c1.8,1.8,2.1,3.2,2.1,4c0,0.8-0.2,2-2.1,3.7l-3.2,3.2c-1.1,1.2-2.4,2.5-4.1,3.9l-0.2,0.2l-0.2,0.3
            c-0.9,1.2-1,2.3-0.5,3.9l0.1,0.4l0.1,0.4c1.7,3.7,3.8,7.1,6.8,10.9c6.2,7.6,12.4,13.3,19,17.4l0.3,0.2c0.8,0.4,1.6,0.8,2.3,1.2
            c0.3,0.3,0.7,0.5,1,0.6c0.4,0.2,0.7,0.3,0.9,0.5l0.7,0.5h0.2l0.3,0.1c0.6,0.2,1,0.2,1.3,0.2c1,0,1.9-0.4,2.8-1.3l7.5-7.5
            c1.2-1.2,2.3-1.7,3.7-1.7c1.5,0,2.9,0.9,3.7,1.7l12.2,12.2C20.1,77.7,20.2,80.2,17.7,82.8z" fill="currentColor"/>
        </symbol>


        <symbol viewBox="0 0 110 32" id="logo">
            <g clip-path="url(#clip0_16746_155)">
            <rect y="1" width="30" height="30" fill="currentColor"/>
            <rect x="38" width="32" height="32" rx="16" fill="currentColor"/>
            <path d="M78 0L110 32H78V0Z" fill="currentColor"/>
            </g>
            <defs>
            <clipPath id="clip0_16746_155">
            <rect width="110" height="32" fill="currentColor"/>
            </clipPath>
            </defs>
        </symbol>

    </defs>
</svg>